<?xml version="1.0" standalone="no"?>
<!DOCTYPE svg PUBLIC "-//W3C//DTD SVG 20010904//EN"
 "http://www.w3.org/TR/2001/REC-SVG-20010904/DTD/svg10.dtd">
<svg version="1.0" xmlns="http://www.w3.org/2000/svg"
 width="220.000000pt" height="220.000000pt" viewBox="0 0 220.000000 220.000000"
 preserveAspectRatio="xMidYMid meet">
<metadata>
Created by potrace 1.14, written by Peter Selinger 2001-2017
</metadata>
<g transform="translate(0.000000,220.000000) scale(0.100000,-0.100000)"
fill="#000000" stroke="none">
<path d="M990 2135 c-8 -2 -48 -9 -89 -15 -338 -55 -645 -292 -795 -611 -57
-121 -83 -217 -98 -356 -30 -290 60 -583 249 -808 109 -130 316 -280 400 -291
33 -4 24 2 -57 46 -269 143 -460 383 -541 679 -30 111 -37 346 -14 461 44 220
141 403 292 553 215 213 465 317 763 317 421 0 780 -225 965 -605 74 -152 97
-245 103 -426 6 -205 -22 -339 -109 -513 -99 -200 -273 -373 -474 -475 -58
-29 -73 -40 -55 -41 31 0 124 48 207 107 182 128 318 305 394 513 76 211 87
451 28 670 -26 97 -115 277 -178 361 -160 211 -393 359 -655 415 -65 14 -301
28 -336 19z"/>
<path d="M1082 2048 c-21 -21 -13 -39 23 -54 19 -8 35 -19 35 -24 0 -17 -29
-23 -45 -10 -9 7 -19 10 -22 6 -11 -11 19 -26 47 -24 19 2 26 10 28 29 3 22
-2 29 -27 37 -17 6 -31 15 -31 21 0 17 20 23 35 11 8 -6 16 -7 19 -2 3 6 -4
12 -17 16 -30 8 -31 8 -45 -6z"/>
<path d="M963 2008 c5 -24 11 -49 13 -55 2 -7 17 -13 34 -13 30 0 30 0 30 55
0 30 -3 55 -7 55 -5 0 -6 -22 -5 -50 4 -45 2 -50 -17 -50 -15 0 -22 9 -27 35
-3 19 -4 42 0 50 3 10 -1 15 -13 15 -16 0 -17 -4 -8 -42z"/>
<path d="M1184 2041 c3 -5 2 -29 -3 -54 -7 -38 -5 -46 8 -50 13 -3 16 6 16 55
0 41 -4 58 -13 58 -7 0 -11 -4 -8 -9z"/>
<path d="M1250 2026 c0 -8 5 -18 10 -21 6 -3 10 -12 10 -20 0 -18 19 -69 24
-64 10 10 34 109 27 109 -5 0 -12 -17 -16 -37 l-8 -38 -12 35 c-7 19 -10 38
-8 43 2 4 -3 7 -11 7 -9 0 -16 -6 -16 -14z"/>
<path d="M741 2016 c-7 -8 -10 -19 -7 -24 3 -5 2 -22 -2 -37 l-8 -29 -23 23
c-15 15 -26 20 -33 13 -6 -6 1 -16 22 -28 17 -10 33 -29 36 -41 4 -13 9 -23
13 -23 16 0 19 13 9 30 -8 12 -8 32 0 71 11 60 10 66 -7 45z"/>
<path d="M842 2024 c-6 -3 -9 -10 -6 -15 6 -10 13 -47 17 -81 3 -30 87 -4 87
28 0 7 -6 17 -12 21 -7 4 -13 17 -13 28 0 15 -7 20 -30 22 -16 1 -36 0 -43 -3z
m56 -21 c-5 -26 -38 -29 -38 -4 0 15 6 21 21 21 14 0 19 -5 17 -17z m18 -62
c-4 -6 -16 -11 -27 -11 -21 0 -27 35 -6 43 16 6 41 -18 33 -32z"/>
<path d="M1363 2013 c6 -9 -11 -66 -25 -89 -5 -8 4 -14 25 -18 41 -8 47 -8 47
1 0 4 -10 8 -22 8 -24 0 -32 14 -19 34 8 12 12 12 25 2 13 -11 16 -11 16 3 0
9 -5 15 -12 14 -6 -2 -14 5 -16 15 -4 18 22 24 33 7 8 -13 25 -13 25 -1 0 5
-10 13 -22 16 -13 4 -31 9 -42 12 -10 3 -16 1 -13 -4z"/>
<path d="M1234 1966 c-9 -29 -8 -35 5 -39 13 -3 16 3 13 35 -2 21 -5 38 -6 38
0 0 -6 -15 -12 -34z"/>
<path d="M1475 1964 c-20 -21 -19 -27 10 -52 25 -22 26 -42 3 -42 -6 0 -20 7
-30 17 -10 9 -18 11 -18 6 0 -18 28 -35 52 -31 30 4 35 39 8 63 -25 23 -26 35
0 35 11 0 20 -4 20 -10 0 -5 5 -10 10 -10 19 0 10 17 -15 28 -19 9 -27 8 -40
-4z"/>
<path d="M592 1923 c-24 -14 -40 -28 -38 -31 3 -3 12 1 20 7 13 11 19 7 36
-21 11 -18 20 -39 20 -45 0 -15 10 -16 30 -3 8 5 10 10 3 10 -14 0 -55 69 -47
81 3 5 10 7 15 4 5 -4 9 1 9 9 0 20 4 20 -48 -11z"/>
<path d="M1572 1918 c-17 -17 -15 -26 8 -56 12 -14 17 -29 12 -34 -12 -12 -42
1 -42 18 0 15 -12 19 -23 8 -9 -9 37 -44 57 -44 8 0 20 9 25 19 8 15 6 25 -11
46 -14 18 -17 30 -10 37 6 6 15 3 25 -12 8 -12 18 -17 21 -11 4 5 -4 17 -16
25 -27 19 -31 19 -46 4z"/>
<path d="M973 1891 c-283 -46 -531 -226 -653 -477 -63 -127 -83 -216 -83 -369
0 -157 20 -245 88 -380 109 -218 313 -382 555 -447 121 -32 319 -32 440 0 271
73 491 268 589 522 34 86 61 224 61 305 0 81 -27 219 -61 305 -122 316 -429
532 -774 545 -60 2 -133 0 -162 -4z m62 -92 c-7 -33 -55 -141 -55 -125 0 5 -2
7 -5 5 -2 -3 0 -21 5 -40 9 -31 8 -32 -5 -15 -8 11 -15 30 -15 43 0 35 27 94
42 91 6 -2 13 2 13 7 3 22 17 65 22 65 2 0 1 -14 -2 -31z m20 -112 c0 -34 8
-54 40 -97 21 -30 42 -57 46 -60 20 -16 89 -148 89 -169 -1 -23 -2 -24 -11 -8
-6 10 -12 28 -13 40 -4 31 -56 106 -56 81 -1 -18 -1 -18 -11 -1 -6 9 -15 14
-21 11 -6 -4 -8 -3 -4 4 3 5 0 13 -6 15 -9 4 -10 6 -1 6 6 1 15 -3 18 -9 3 -5
10 -10 15 -10 5 0 0 16 -11 35 -18 30 -24 34 -37 23 -13 -11 -14 -11 -8 0 4 7
0 19 -11 30 -11 9 -13 13 -6 8 17 -11 17 8 0 23 -8 6 -17 8 -21 4 -4 -4 -4 0
-1 9 4 9 2 25 -4 35 -15 25 -7 -67 8 -93 27 -48 28 -49 48 -33 17 13 17 13 4
-4 -11 -14 -12 -23 -2 -45 19 -41 -3 -15 -43 52 -41 68 -47 120 -19 167 10 16
17 29 18 29 0 0 0 -19 0 -43z m184 -252 c0 -5 -4 -3 -9 5 -5 8 -9 22 -9 30 0
16 17 -16 18 -35z m-172 3 c-3 -7 -5 -2 -5 12 0 14 2 19 5 13 2 -7 2 -19 0
-25z m7 -29 c-15 -16 -16 -23 -6 -37 7 -9 17 -30 23 -45 8 -19 15 -25 21 -19
6 6 17 8 24 5 10 -4 14 4 14 30 0 47 17 57 25 14 6 -29 11 -34 31 -31 25 2 29
-6 25 -56 l-1 -25 24 28 c14 15 28 27 31 27 10 0 5 -65 -10 -112 -7 -26 -10
-50 -6 -53 23 -13 18 -48 -11 -81 l-30 -34 -146 0 c-80 0 -143 -3 -139 -6 3
-3 2 -16 -3 -29 -8 -21 -5 -23 38 -28 26 -3 92 -3 146 0 l99 5 -5 -44 c-7 -62
-27 -98 -67 -119 -19 -10 -39 -23 -45 -29 -5 -5 -17 -10 -26 -10 -13 0 -13 1
0 10 17 11 10 13 -14 4 -9 -3 -13 -10 -10 -15 9 -15 44 -10 72 9 57 40 87 43
145 17 28 -14 60 -25 70 -25 10 0 15 -4 12 -10 -3 -5 -2 -10 4 -10 5 0 13 5
16 10 10 16 33 12 39 -8 4 -11 25 -23 53 -31 27 -7 53 -14 60 -16 10 -3 133
-247 133 -266 0 -4 -4 -10 -9 -13 -4 -3 -221 -8 -482 -10 -261 -3 -499 -8
-529 -11 -44 -4 -60 -2 -78 12 l-22 18 24 60 c13 33 31 85 40 115 14 48 21 57
56 74 22 11 40 25 40 31 0 7 18 15 40 18 48 6 236 96 202 97 -17 0 -28 10 -42
43 -10 23 -21 53 -23 67 -2 14 -7 32 -10 40 -16 39 -12 55 11 52 30 -4 28 3
-14 64 l-37 53 17 43 c10 26 32 55 57 73 21 17 48 46 59 65 l19 35 1 -27 c0
-16 3 -28 8 -28 9 1 62 77 62 89 0 11 28 41 37 41 3 0 -2 -9 -13 -21z m196 -8
c12 -24 13 -58 2 -65 -5 -3 -13 15 -19 39 -11 46 -2 60 17 26z m-329 2 c0 -5
2 -16 4 -25 2 -10 -1 -20 -6 -24 -5 -3 -9 4 -9 15 0 11 -5 23 -12 27 -7 4 -8
3 -4 -4 5 -8 1 -10 -10 -5 -14 5 -16 2 -11 -17 4 -16 3 -20 -5 -12 -17 17 1
52 28 52 13 0 24 -3 25 -7z m-15 -91 c-18 -16 -18 -16 -6 6 6 13 14 21 18 18
3 -4 -2 -14 -12 -24z m67 -322 c3 -11 2 -20 -2 -20 -3 0 -12 9 -19 20 -10 16
-10 20 2 20 7 0 16 -9 19 -20z m297 -77 c-11 -45 -41 -87 -66 -91 -16 -3 -16
-1 4 13 28 21 52 66 52 100 0 14 4 24 9 21 5 -4 5 -22 1 -43z m-240 -592 c0
-38 3 -76 6 -85 5 -12 0 -15 -20 -14 -25 2 -26 4 -26 69 0 37 -3 74 -6 83 -5
12 0 16 20 16 26 0 26 -1 26 -69z"/>
<path d="M991 1743 c-1 -6 -4 -20 -7 -30 -5 -17 -5 -17 6 0 6 10 9 23 6 30 -3
9 -5 9 -5 0z"/>
<path d="M1154 1099 c-3 -6 -25 -20 -48 -30 -46 -21 -40 -25 9 -8 26 10 67 49
51 49 -3 0 -8 -5 -12 -11z"/>
<path d="M977 1049 c7 -7 15 -10 18 -7 3 3 -2 9 -12 12 -14 6 -15 5 -6 -5z"/>
<path d="M982 894 c-2 -42 29 -99 50 -92 11 4 12 23 1 23 -17 0 -33 17 -27 27
4 7 2 8 -4 4 -7 -4 -12 9 -15 36 l-4 43 -1 -41z"/>
<path d="M980 806 c0 -2 7 -7 16 -10 8 -3 12 -2 9 4 -6 10 -25 14 -25 6z"/>
<path d="M1312 719 c-26 -24 -27 -32 -6 -54 15 -15 15 -17 -5 -31 -27 -19 -27
-46 -1 -69 24 -22 81 -25 104 -6 23 19 20 67 -4 84 -18 13 -19 16 -5 27 29 24
14 52 -36 63 -18 5 -32 1 -47 -14z m32 0 c-4 -8 0 -9 15 -4 26 8 39 -18 21
-40 -11 -13 -16 -13 -41 1 -33 17 -36 29 -11 43 22 13 25 13 16 0z m51 -129
c0 -27 -21 -36 -60 -26 -31 8 -39 34 -20 63 l16 24 32 -18 c22 -13 32 -27 32
-43z"/>
<path d="M790 710 c-16 -16 -18 -25 -10 -40 11 -21 45 -27 55 -10 3 6 -3 10
-14 10 -25 0 -29 35 -5 44 24 9 54 -12 54 -39 0 -18 -11 -32 -39 -50 -21 -14
-43 -37 -49 -50 l-12 -25 64 0 c44 0 65 4 69 13 4 11 -7 12 -49 9 -55 -5 -67
4 -39 28 8 6 20 8 27 4 7 -4 10 -4 6 1 -4 4 6 18 21 31 16 13 31 33 34 45 3
11 3 19 0 16 -2 -3 -13 3 -24 14 -25 25 -64 24 -89 -1z"/>
<path d="M960 710 c-25 -25 -27 -100 -4 -135 21 -32 73 -34 100 -4 25 28 25
110 -1 139 -23 26 -69 26 -95 0z m80 -9 c14 -28 13 -104 -3 -125 -17 -24 -48
-17 -65 14 -15 29 -8 110 11 122 21 14 46 9 57 -11z"/>
<path d="M1089 708 c-3 -46 2 -263 7 -267 2 -2 4 62 4 142 0 81 -2 147 -5 147
-3 0 -6 -10 -6 -22z"/>
<path d="M1130 708 c-29 -32 -28 -107 3 -136 54 -51 123 -5 114 76 -2 24 -13
52 -22 62 -24 27 -69 25 -95 -2z m78 0 c15 -15 16 -102 2 -129 -13 -23 -43
-25 -61 -3 -7 9 -13 37 -13 64 0 68 37 103 72 68z"/>
<path d="M820 482 c-36 -22 -56 -27 -111 -27 -39 0 -64 -4 -59 -9 19 -19 125
-1 180 32 30 17 51 31 45 31 -5 0 -30 -12 -55 -27z"/>
<path d="M1330 506 c0 -10 87 -56 106 -55 13 0 11 3 -8 9 -15 4 -44 18 -63 30
-19 12 -35 19 -35 16z"/>
<path d="M1510 495 c0 -5 5 -17 10 -25 5 -8 10 -10 10 -5 0 6 -5 17 -10 25 -5
8 -10 11 -10 5z"/>
<path d="M1585 461 c7 -23 6 -23 -41 -17 -27 3 -80 2 -119 -3 -67 -8 -65 -8
58 -10 l128 -1 -12 23 c-17 32 -23 36 -14 8z"/>
<path d="M570 438 c0 -13 14 -18 75 -23 42 -4 78 -5 81 -3 2 3 -28 9 -68 13
-40 3 -76 12 -80 18 -5 8 -8 6 -8 -5z"/>
<path d="M753 423 c9 -2 23 -2 30 0 6 3 -1 5 -18 5 -16 0 -22 -2 -12 -5z"/>
<path d="M1023 310 c0 -41 2 -58 4 -37 2 20 2 54 0 75 -2 20 -4 3 -4 -38z"/>
<path d="M519 1879 c-9 -6 -11 -11 -3 -16 6 -5 22 -25 35 -45 17 -25 29 -34
38 -29 10 7 10 9 -2 14 -8 3 -23 23 -34 45 -15 30 -23 38 -34 31z"/>
<path d="M463 1838 c-33 -16 -39 -46 -16 -77 22 -29 57 -38 79 -21 15 14 19
50 5 50 -5 0 -7 -8 -4 -19 8 -29 -26 -35 -54 -9 -30 28 -27 64 4 61 16 -2 21
2 17 12 -4 8 -7 15 -8 14 0 0 -11 -5 -23 -11z"/>
<path d="M1710 1837 c0 -7 -14 -25 -30 -41 -34 -33 -36 -41 -16 -49 9 -4 16 3
20 19 6 21 9 22 26 12 19 -12 19 -13 1 -33 -17 -17 -17 -22 -5 -33 11 -11 14
-10 14 2 0 9 14 31 30 50 17 19 26 37 21 40 -6 4 -15 -3 -21 -15 -11 -20 -13
-20 -28 -5 -16 16 -16 18 1 30 21 16 21 22 2 30 -8 3 -15 0 -15 -7z"/>
<path d="M1769 1730 c-30 -33 -33 -40 -22 -56 11 -15 13 -15 13 -2 0 9 16 30
36 47 19 17 32 36 29 41 -9 15 -17 11 -56 -30z"/>
<path d="M347 1734 c-4 -4 9 -18 29 -32 45 -30 39 -36 -16 -17 -24 9 -46 12
-49 8 -4 -5 12 -26 35 -48 33 -32 44 -37 53 -28 9 10 9 13 -1 13 -7 0 -24 10
-38 21 l-25 21 30 -7 c17 -3 38 -8 48 -11 9 -3 17 -1 17 3 0 14 -76 84 -83 77z"/>
<path d="M1812 1694 c-29 -20 -29 -64 1 -90 22 -20 22 -20 42 1 20 21 20 22 2
51 l-19 29 6 -26 c7 -33 -20 -62 -35 -38 -14 23 -11 36 17 58 33 26 61 16 55
-21 0 -5 6 -8 15 -8 16 0 12 12 -14 43 -19 21 -41 22 -70 1z"/>
<path d="M246 1605 c-3 -8 -1 -17 4 -20 6 -4 10 -15 10 -27 0 -16 5 -19 23
-14 12 3 25 6 29 6 4 0 5 7 1 16 -5 14 -3 15 17 4 18 -10 24 -9 31 1 6 11 1
15 -21 17 -17 2 -30 8 -30 13 0 6 -4 7 -10 4 -5 -3 -18 -1 -29 4 -14 8 -20 7
-25 -4z m44 -25 c8 -5 11 -12 7 -16 -4 -4 -15 0 -24 9 -18 18 -8 23 17 7z"/>
<path d="M1898 1587 c-25 -17 -44 -36 -41 -43 3 -9 11 -6 25 8 19 19 22 19 30
4 11 -19 3 -36 -18 -36 -16 0 -18 -9 -4 -30 6 -9 10 -10 10 -3 0 15 70 64 82
57 4 -3 8 -1 8 5 0 19 -21 23 -39 7 -17 -16 -19 -16 -25 -1 -9 24 -8 25 14 33
11 4 16 12 12 18 -5 8 -22 2 -54 -19z"/>
<path d="M290 1532 c0 -4 4 -13 9 -20 6 -10 10 -10 20 1 9 12 7 16 -9 20 -11
3 -20 2 -20 -1z"/>
<path d="M186 1509 c-21 -31 -20 -45 4 -69 23 -23 72 -26 90 -5 15 18 10 47
-10 53 -13 5 -13 3 -1 -12 12 -15 12 -19 -1 -32 -12 -12 -20 -13 -44 -4 -45
18 -57 46 -24 58 13 5 16 12 11 21 -7 10 -12 8 -25 -10z"/>
<path d="M1992 1457 c-6 -7 -10 -26 -9 -43 1 -20 -3 -29 -13 -29 -10 0 -15 10
-15 28 1 15 -5 27 -12 27 -18 0 -16 -31 3 -58 18 -26 27 -27 48 -7 10 11 13
26 9 46 -5 27 -3 30 13 27 13 -3 18 -11 17 -26 -2 -12 2 -22 7 -22 13 0 13 26
0 51 -12 22 -33 25 -48 6z"/>
<path d="M136 1388 c-13 -19 -14 -25 -2 -43 22 -32 62 -42 86 -20 26 24 25 50
-2 69 -32 22 -64 20 -82 -6z m78 -17 c21 -23 14 -41 -15 -41 -32 0 -59 19 -59
40 0 27 50 27 74 1z"/>
<path d="M1990 1340 c-11 -11 -20 -24 -20 -29 0 -24 14 -41 34 -40 21 0 21 0
-1 9 -26 11 -28 19 -10 43 18 24 61 31 76 13 11 -13 11 -19 1 -31 -10 -12 -10
-15 4 -15 19 0 22 40 4 58 -19 19 -66 14 -88 -8z"/>
<path d="M106 1285 c-22 -23 -20 -51 6 -69 30 -21 61 -20 81 2 21 24 21 35 0
55 -29 25 -68 31 -87 12z m74 -23 c28 -23 19 -42 -19 -42 -37 0 -64 21 -55 43
8 22 46 22 74 -1z"/>
<path d="M2098 1255 c-5 -5 -63 -16 -90 -16 -10 0 -15 -6 -12 -13 3 -8 15 -11
30 -8 19 3 24 0 24 -17 0 -14 -6 -21 -20 -21 -12 0 -20 -7 -20 -16 0 -12 3
-14 13 -6 7 6 32 13 55 14 24 2 42 8 42 15 0 7 -12 11 -27 10 -20 -1 -28 3
-31 17 -3 15 1 18 22 14 20 -4 26 -1 26 13 0 19 -3 23 -12 14z"/>
<path d="M173 1153 c2 -26 0 -28 -33 -25 -19 2 -43 5 -52 8 -12 4 -18 0 -18
-11 0 -9 3 -14 8 -12 4 3 28 2 54 -2 36 -6 48 -4 53 6 8 23 6 63 -4 63 -6 0
-9 -12 -8 -27z"/>
<path d="M2030 1120 c-24 -24 -24 -30 -6 -55 25 -35 106 -16 106 26 0 46 -64
65 -100 29z m87 -16 c12 -31 -49 -54 -82 -31 -16 13 -17 17 -6 31 18 21 80 21
88 0z"/>
<path d="M156 1065 c-24 -18 -40 -19 -30 -2 4 6 -3 2 -15 -10 -12 -13 -26 -23
-31 -23 -6 0 -10 -7 -10 -15 0 -14 3 -14 25 1 13 8 29 13 35 9 18 -11 0 -26
-23 -19 -19 6 -20 5 -8 -9 7 -9 17 -14 23 -11 5 3 20 -2 33 -10 24 -16 25 -15
25 3 0 14 -5 18 -19 14 -15 -4 -18 1 -18 21 0 19 5 26 18 26 12 0 19 7 19 20
0 24 0 23 -24 5z"/>
<path d="M2027 1002 c-10 -10 -17 -23 -17 -29 0 -19 37 -43 66 -43 36 0 54 16
54 47 0 41 -73 59 -103 25z m88 -27 c0 -15 -8 -21 -33 -23 -18 -2 -40 2 -48 9
-23 19 3 41 45 37 28 -2 36 -7 36 -23z"/>
<path d="M158 930 c43 -18 19 -60 -34 -60 -39 0 -49 12 -34 40 6 12 7 20 1 20
-19 0 -23 -41 -5 -61 35 -38 108 -10 102 39 -2 20 -9 28 -28 29 -25 3 -25 3
-2 -7z"/>
<path d="M2006 885 c-9 -32 -7 -55 4 -55 6 0 8 11 4 25 -6 23 -3 25 24 25 17
0 42 -4 56 -10 19 -7 26 -6 26 3 0 7 -23 17 -54 23 -51 9 -55 8 -60 -11z"/>
<path d="M205 761 c-3 -6 -3 -16 1 -23 4 -7 3 -8 -4 -4 -17 10 -15 -20 4 -61
23 -46 34 -25 22 40 -11 58 -13 63 -23 48z m15 -76 c0 -5 -5 -3 -10 5 -5 8
-10 20 -10 25 0 6 5 3 10 -5 5 -8 10 -19 10 -25z"/>
<path d="M1992 745 c-7 -14 -12 -45 -12 -67 0 -39 1 -40 15 -22 19 26 29 79
18 99 -8 14 -11 12 -21 -10z m12 -39 c-3 -15 -8 -25 -11 -23 -2 3 -1 17 3 31
3 15 8 25 11 23 2 -3 1 -17 -3 -31z"/>
<path d="M262 642 c2 -38 -1 -61 -7 -59 -5 2 -25 25 -44 53 l-34 49 7 -40 c12
-65 29 -84 75 -80 71 5 77 21 31 93 l-31 47 3 -63z m33 -14 c16 -48 11 -66
-11 -47 -15 12 -20 69 -5 69 5 0 12 -10 16 -22z m-75 -28 c6 -11 8 -20 6 -20
-3 0 -10 9 -16 20 -6 11 -8 20 -6 20 3 0 10 -9 16 -20z"/>
<path d="M1928 670 c-52 -78 -46 -107 24 -106 39 1 45 4 60 36 10 19 18 46 17
60 0 15 -3 19 -6 10 -3 -8 -20 -33 -37 -55 l-31 -39 -5 59 c-5 60 -5 60 -22
35z m12 -49 c0 -38 -23 -64 -33 -37 -5 12 20 76 29 76 2 0 4 -18 4 -39z m60
-20 c-5 -11 -15 -23 -21 -27 -6 -3 -3 5 6 20 20 30 30 35 15 7z"/>
<path d="M319 554 c-8 -10 -13 -26 -11 -37 3 -13 0 -17 -9 -12 -8 5 -10 4 -5
-4 4 -6 11 -9 16 -6 5 3 15 -3 22 -15 7 -11 16 -20 20 -20 13 0 8 74 -6 93
-12 16 -14 16 -27 1z m27 -43 c1 -26 -1 -29 -12 -20 -17 14 -19 62 -2 57 7 -3
13 -19 14 -37z"/>
<path d="M1861 552 c-13 -24 -15 -79 -3 -86 4 -2 18 11 31 30 l24 35 -20 21
-21 20 -11 -20z m29 -26 c0 -7 -6 -21 -14 -32 -14 -18 -15 -17 -12 11 2 17 4
34 5 38 2 13 21 -3 21 -17z"/>
<path d="M213 534 c18 -34 54 -70 63 -61 4 3 13 0 21 -8 19 -19 34 -19 27 0
-4 8 -10 13 -14 10 -4 -3 -13 2 -20 10 -7 9 -31 30 -53 47 l-39 32 15 -30z"/>
<path d="M1955 516 c-27 -24 -52 -43 -55 -41 -3 1 -18 -14 -35 -34 -23 -29
-24 -32 -4 -14 13 12 41 29 60 37 35 15 89 67 89 87 0 13 0 13 -55 -35z"/>
<path d="M270 541 c0 -6 4 -13 10 -16 6 -3 7 1 4 9 -7 18 -14 21 -14 7z"/>
<path d="M1926 533 c-6 -14 -5 -15 5 -6 7 7 10 15 7 18 -3 3 -9 -2 -12 -12z"/>
<path d="M378 462 c-6 -23 29 -82 50 -82 22 0 13 39 -16 71 -27 30 -29 31 -34
11z m52 -66 c0 -18 -36 29 -38 48 -1 16 3 14 18 -9 11 -17 20 -34 20 -39z"/>
<path d="M1797 450 c-27 -31 -35 -64 -18 -74 20 -13 66 66 53 90 -7 13 -13 11
-35 -16z m26 -7 c-9 -25 -24 -43 -35 -43 -6 0 -5 7 2 15 7 8 9 15 4 15 -8 1
25 30 33 30 1 0 0 -8 -4 -17z"/>
<path d="M1910 440 c-19 -11 -53 -35 -75 -55 l-40 -36 40 16 c22 9 58 34 80
55 45 45 44 47 -5 20z m0 -13 c0 -2 -15 -13 -32 -26 l-33 -22 28 25 c26 24 37
31 37 23z"/>
<path d="M300 415 c19 -19 53 -41 75 -50 l40 -15 -35 31 c-74 66 -140 95 -80
34z m60 -31 c0 -3 -13 4 -30 16 -16 12 -30 24 -30 26 0 3 14 -4 30 -16 17 -12
30 -24 30 -26z"/>
<path d="M468 360 c5 -32 63 -91 70 -71 5 16 -29 71 -54 87 -19 13 -20 13 -16
-16z m44 -32 l23 -33 -25 16 c-14 9 -26 24 -28 33 -5 24 4 19 30 -16z"/>
<path d="M1725 372 c-28 -23 -55 -63 -55 -81 0 -26 64 34 71 68 4 17 6 31 5
31 0 -1 -10 -8 -21 -18z m2 -36 c-3 -8 -16 -20 -28 -26 -17 -10 -20 -9 -14 2
24 41 55 59 42 24z"/>
<path d="M390 319 c28 -25 51 -39 62 -36 10 3 18 1 18 -4 0 -5 6 -9 12 -9 24
0 -37 48 -87 69 l-50 21 45 -41z m69 -25 c14 -12 -19 -1 -35 12 -18 14 -18 14
6 3 14 -6 27 -13 29 -15z"/>
<path d="M1769 343 c-13 -16 -12 -17 4 -4 16 13 21 21 13 21 -2 0 -10 -8 -17
-17z"/>
<path d="M1802 320 c-18 -16 -37 -30 -44 -30 -7 1 0 8 15 16 16 9 27 18 24 21
-8 7 -39 -12 -62 -37 l-19 -21 29 7 c32 7 74 33 95 59 22 27 -6 16 -38 -15z"/>
<path d="M564 285 c16 -38 22 -45 59 -66 32 -18 -4 51 -42 79 l-33 26 16 -39z
m36 -25 c12 -16 19 -30 16 -30 -2 0 -14 14 -26 30 -12 17 -19 30 -16 30 2 0
14 -13 26 -30z"/>
<path d="M1623 295 c-35 -28 -65 -92 -35 -76 21 11 46 39 62 69 16 33 9 35
-27 7z m8 -23 c-5 -10 -18 -25 -27 -33 -16 -12 -17 -12 -9 1 10 18 37 50 42
50 2 0 -1 -8 -6 -18z"/>
<path d="M640 262 c0 -7 5 -12 11 -12 5 0 8 -4 5 -9 -12 -18 7 -42 48 -62 22
-11 33 -13 23 -5 -10 8 -18 17 -17 20 1 10 -13 29 -43 55 -15 14 -27 19 -27
13z m65 -70 c-7 -7 -45 29 -45 41 0 6 11 0 25 -13 14 -13 23 -26 20 -28z"/>
<path d="M1529 232 c-19 -20 -41 -45 -49 -55 -13 -18 -12 -18 23 -1 32 15 77
77 65 90 -2 2 -20 -13 -39 -34z m9 -14 c-8 -12 -21 -24 -29 -26 -8 -3 -3 7 10
22 30 32 39 34 19 4z"/>
<path d="M467 246 c33 -25 105 -56 128 -56 28 0 -71 56 -115 65 -34 7 -35 6
-13 -9z m63 -16 c8 -5 11 -10 5 -10 -5 0 -17 5 -25 10 -8 5 -10 10 -5 10 6 0
17 -5 25 -10z"/>
<path d="M1705 246 c-22 -7 -56 -23 -75 -35 l-35 -22 35 6 c33 7 85 30 120 54
20 14 4 13 -45 -3z"/>
<path d="M720 224 c0 -16 67 -90 75 -82 4 4 -11 26 -34 50 -22 24 -41 38 -41
32z m51 -51 c13 -16 12 -17 -3 -4 -10 7 -18 15 -18 17 0 8 8 3 21 -13z"/>
<path d="M1446 189 c-21 -22 -35 -43 -32 -46 7 -8 32 14 58 49 31 45 15 43
-26 -3z m14 -3 c0 -2 -8 -10 -17 -17 -16 -13 -17 -12 -4 4 13 16 21 21 21 13z"/>
<path d="M809 162 c18 -24 38 -41 45 -39 23 8 10 28 -34 54 l-45 27 34 -42z"/>
<path d="M1385 174 c-39 -23 -51 -44 -29 -51 7 -2 26 14 44 37 17 22 30 40 28
39 -1 0 -21 -12 -43 -25z m-5 -24 c0 -5 -5 -10 -11 -10 -5 0 -7 5 -4 10 3 6 8
10 11 10 2 0 4 -4 4 -10z"/>
<path d="M593 164 c15 -8 31 -12 36 -9 5 3 11 0 13 -6 2 -6 15 -9 28 -7 l25 4
-25 11 c-14 5 -43 13 -65 16 l-40 6 28 -15z"/>
<path d="M1582 171 c-23 -4 -48 -13 -55 -20 -10 -11 -5 -12 28 -6 22 4 51 13
65 20 27 15 25 16 -38 6z"/>
<path d="M1043 149 c-2 -23 3 -25 10 -4 4 8 3 16 -1 19 -4 3 -9 -4 -9 -15z"/>
<path d="M1145 161 c-3 -5 -1 -12 5 -16 5 -3 10 1 10 9 0 18 -6 21 -15 7z"/>
<path d="M990 150 c-9 -6 -10 -10 -3 -10 6 0 15 5 18 10 8 12 4 12 -15 0z"/>
<path d="M1007 133 c-6 -5 -19 -8 -62 -12 -12 -1 66 -70 80 -71 5 0 -6 13 -25
30 -19 16 -31 29 -26 30 5 0 19 -8 30 -17 20 -17 21 -17 3 2 -16 18 -16 20 5
32 13 7 18 12 12 13 -6 0 -14 -3 -17 -7z"/>
<path d="M1179 131 c7 -5 11 -14 7 -20 -5 -7 -1 -9 9 -5 12 5 13 9 4 20 -6 8
-17 14 -23 14 -6 0 -5 -4 3 -9z"/>
<path d="M670 120 c8 -5 35 -10 60 -10 33 0 41 3 30 10 -8 5 -35 10 -60 10
-33 0 -41 -3 -30 -10z"/>
<path d="M1450 120 c-11 -7 -3 -10 30 -10 25 0 52 5 60 10 11 7 3 10 -30 10
-25 0 -52 -5 -60 -10z"/>
<path d="M1140 105 c7 -9 15 -13 17 -11 7 7 -7 26 -19 26 -6 0 -6 -6 2 -15z"/>
<path d="M1220 106 c0 -8 -12 -24 -26 -35 -15 -12 -23 -21 -18 -21 5 1 27 16
48 35 34 31 37 35 18 35 -12 0 -22 -6 -22 -14z"/>
<path d="M777 103 c-22 -6 -12 -23 14 -23 11 0 18 4 15 8 -2 4 12 6 32 4 28
-2 33 -1 22 7 -15 11 -50 12 -83 4z"/>
<path d="M1350 100 c-12 -8 -10 -10 10 -11 14 -1 36 -3 50 -4 33 -4 49 7 24
16 -27 11 -66 10 -84 -1z"/>
<path d="M1050 81 c0 -5 5 -13 10 -16 6 -3 10 -2 10 4 0 5 -4 13 -10 16 -5 3
-10 2 -10 -4z"/>
</g>
</svg>
